<svg xmlns="http://www.w3.org/2000/svg" viewBox="0 0 164.63 162.25"><defs><style>.cls-1{fill:#369a37;}.cls-2{fill:#fff;}</style></defs><title>LOGO_JARDINES</title><g id="Capa_2" data-name="Capa 2"><path class="cls-1" d="M45.6,149.45l12.26-22s9.32-25.88,12.44-33.92a5,5,0,0,0-.39-4.43h0a3.48,3.48,0,0,0-1.62-1.4l-1.79-.76a3,3,0,0,1-1.68-1.8l-.12-.35a2.4,2.4,0,0,0-3.08-1.47l-.48.18a.59.59,0,0,1-.79-.55h0a2.14,2.14,0,0,0-2.14-2.14h-.55a1.71,1.71,0,0,1-1.53-1l-.18-.37a3.43,3.43,0,0,0-3.08-1.93H52.7a1.59,1.59,0,0,1-1.57-1.23l0-.1a2,2,0,0,0-2.38-1.5h0a1.31,1.31,0,0,1-1.61-1.26c0-.4,0-.72,0-.72a2.22,2.22,0,0,0-2-1.17h-1a.81.81,0,0,1-.81-.81h0a4.76,4.76,0,0,0-1.93-3.83L6.65,41.28a.35.35,0,0,1,.3-.62L33.46,48.3a.74.74,0,0,0,.76-1.21l-5.12-5.75a.15.15,0,0,1,.16-.24c4.82,1.66,41.82,14.43,53.9,20.71,1.68.87,6.29,4.24,6.29,4.24a4.67,4.67,0,0,0,7.14-2.77c1-4.22,2.35-9.25,3.28-11.14,3.52-7.21,9.48-11,17.3-9.21,2.46.56,11.57,1.8,11.57,1.8l26.85-5.21-26,7.36a5.58,5.58,0,0,0-3.16,2.27L114.27,66a20.41,20.41,0,0,0-3.38,9.52l-.65,7.13a31.54,31.54,0,0,1-11.89,21L72.91,120.32a23.87,23.87,0,0,0-5.67,5.28L48.56,151a.2.2,0,0,1-.34-.23l6.54-12.08a.14.14,0,0,0-.23-.15l-8.7,11A.14.14,0,0,1,45.6,149.45Z"/><circle class="cls-2" cx="115.89" cy="50.34" r="1.6"/></g></svg>