<svg xmlns="http://www.w3.org/2000/svg" viewBox="0 0 381.73 373.58"><defs><style>.cls-1{fill:#fff;}.cls-2{fill:none;stroke:#fff;stroke-miterlimit:10;stroke-width:3px;}.cls-3{fill:#fff;}</style></defs><title>LOGO_JARDINES</title><g id="Capa_2" data-name="Capa 2"><path class="cls-1" d="M201,361.56c-.5,0-20.91-12.45-32.8-14.27-3-.46-6-1.4-9.27-2.24-1.61-.45-3.28-.83-5-1.37l-5.11-1.77c-1.73-.62-3.52-1.16-5.29-1.89l-5.39-2.31c-3.69-1.45-7.33-3.46-11.11-5.39-.94-.5-1.9-.94-2.84-1.5l-2.8-1.7-5.7-3.45c-1.88-1.25-3.75-2.6-5.65-3.91s-3.83-2.62-5.66-4.16l-5.62-4.49c-1-.72-1.85-1.58-2.76-2.4l-2.74-2.48c-3.74-3.2-7.2-6.94-10.79-10.53-.91-.88-1.73-1.89-2.59-2.85L77.34,292,74.77,289c-.87-1-1.65-2-2.48-3l-4.9-6.18c-1.58-2.12-3.11-4.32-4.66-6.47l-2.32-3.24-2.19-3.37L53.86,260l-4.07-7-2-3.47A28.91,28.91,0,0,1,45.9,246C16.68,164.75,58.8,107.12,58.8,107.12l2.22-.35S20.8,171.66,48.46,243.3a31.75,31.75,0,0,0,1.87,3.48c.63,1.16,1.33,2.26,2,3.4l4,6.79c1.4,2.22,2.87,4.38,4.31,6.58l2.17,3.29c.75,1.07,1.53,2.11,2.29,3.16l4.6,6.31,4.85,6c.81,1,1.6,2,2.43,3l2.54,2.82c1.7,1.87,3.36,3.78,5.07,5.6l5.26,5.23c.88.85,1.72,1.77,2.63,2.57l2.71,2.4c1.81,1.58,3.58,3.22,5.4,4.73l5.52,4.32c.92.7,1.81,1.45,2.74,2.11l2.8,1.92,5.53,3.78,5.58,3.31c1.85,1.08,3.64,2.23,5.51,3.09l5.47,2.75c.91.43,1.78.95,2.69,1.3l2.7,1.13,5.27,2.2c.43.17.86.37,1.29.53l1.3.44,2.57.86,5,1.67a22.68,22.68,0,0,0,2.44.7l2.4.61,4.64,1.18c.76.18,1.5.41,2.24.55l2.2.39c2.89.51,5.61,2,8.15,2.45,2.54.26,29.9,15.49,30.47,15.51Z"/><path class="cls-1" d="M91.61,69.69A115.68,115.68,0,0,1,86.3,80.37a74,74,0,0,1-6.75,10.37c-1.3,1.7-2.68,3.42-4.22,5.1s-3.24,3.33-5,5-3.76,3.37-5.93,5.05c-1.08.84-2.23,1.67-3.39,2.53s-2.36,1.72-3.63,2.59q.56-2.09,1.21-4.08c.44-1.32.95-2.58,1.46-3.82a73.9,73.9,0,0,1,3.35-7,59.57,59.57,0,0,1,4-6.11,63,63,0,0,1,4.34-5.35,72.29,72.29,0,0,1,9.66-8.56A105.69,105.69,0,0,1,91.61,69.69Z"/><path class="cls-1" d="M78.23,115.68c-1,1.78-1.95,3.55-3,5.29s-2.16,3.45-3.25,5.16a68.25,68.25,0,0,1-7.67,9.69,55.52,55.52,0,0,1-10.07,8.53,68.29,68.29,0,0,1-13.48,7,85.87,85.87,0,0,1,3.79-8.66,76.29,76.29,0,0,1,4.27-7.13,48.15,48.15,0,0,1,9.32-10.31A44.77,44.77,0,0,1,63,121.71a44.17,44.17,0,0,1,5-2.64A58.81,58.81,0,0,1,78.23,115.68Z"/><path class="cls-1" d="M34.38,96.85c-.65,2.27-1.25,4.54-1.79,6.81a64.35,64.35,0,0,0-1.31,6.79,59.81,59.81,0,0,0-.53,13.34A41.08,41.08,0,0,0,34,136.44a37.89,37.89,0,0,0,8.14,11.44c.65-3.22,1-6.25,1.39-9.09a72.85,72.85,0,0,0,.61-8A63.5,63.5,0,0,0,43,117.25a48.78,48.78,0,0,0-1.55-5.76,54.18,54.18,0,0,0-2-5.23A72,72,0,0,0,34.38,96.85Z"/><path class="cls-1" d="M61.76,148.84c-.43,2-.91,3.94-1.43,5.9s-1,3.91-1.59,5.85-1.29,3.88-2.08,5.81-1.56,3.83-2.51,5.73a68.35,68.35,0,0,1-18.32,22.35q.41-5,1.19-9.35c.27-1.45.52-2.83.88-4.18s.74-2.64,1.14-3.88a49.51,49.51,0,0,1,6-12.7,48,48,0,0,1,7.79-9A63.15,63.15,0,0,1,61.76,148.84Z"/><path class="cls-1" d="M23.46,142.33c-.49,2.28-.95,4.56-1.31,6.82s-.56,4.54-.71,6.78-.21,4.45-.14,6.63A47.81,47.81,0,0,0,22,169a34.3,34.3,0,0,0,13.64,22.07,89.88,89.88,0,0,0,.67-9c0-1.4,0-2.76,0-4.07s0-2.57-.11-3.8a59.15,59.15,0,0,0-2.28-13,46,46,0,0,0-4.56-10.31A68.44,68.44,0,0,0,23.46,142.33Z"/><path class="cls-1" d="M54.9,190.09l.21,1.49.25,1.46q.24,1.47.44,2.95c.27,2,.47,4,.6,6s.27,4,.27,6.09a62.09,62.09,0,0,1-.27,6.28c-.1,1.07-.24,2.16-.38,3.24s-.3,2.16-.5,3.26a63.67,63.67,0,0,1-1.62,6.8c-.69,2.33-1.55,4.75-2.55,7.21s-2.13,5-3.48,7.6q-.8-2.33-1.44-4.55c-.39-1.51-.72-3-1-4.42a74.23,74.23,0,0,1-1.18-8.16,55.57,55.57,0,0,1,.86-14.11,49.54,49.54,0,0,1,4-11.53A63,63,0,0,1,54.9,190.09Z"/><path class="cls-1" d="M12.17,203.58l.36,1.69.43,1.67q.44,1.66.91,3.29c.63,2.17,1.32,4.29,2.09,6.35a45.7,45.7,0,0,0,2.7,5.92A47.32,47.32,0,0,0,22,227.85c.61.84,1.23,1.66,1.92,2.44s1.43,1.52,2.19,2.22a32.63,32.63,0,0,0,5,3.82,30.56,30.56,0,0,0,5.85,2.85,37.46,37.46,0,0,0,7,1.69q-.79-2.21-1.63-4.23c-.51-1.37-1-2.67-1.57-3.92a63.08,63.08,0,0,0-3.45-6.83,47.71,47.71,0,0,0-7.52-10.4,44.42,44.42,0,0,0-8.4-7A73.16,73.16,0,0,0,12.17,203.58Z"/><path class="cls-1" d="M61,214.62c.55,1.85,1.07,3.73,1.53,5.64l.67,2.87q.35,1.42.65,2.86c.4,1.93.73,3.9,1,5.94.12,1,.21,2.05.29,3.09s.17,2.05.22,3.11a61.2,61.2,0,0,1-.06,6.55c-.13,2.26-.44,4.66-.78,7a87.61,87.61,0,0,1-4,15.81,89,89,0,0,1-3.59-8.35,38.17,38.17,0,0,1-1.24-4q-.52-2-.91-3.87a46.25,46.25,0,0,1-.9-14.07C54.45,228.62,57.48,221.24,61,214.62Z"/><path class="cls-1" d="M18.56,245.37c1.25,1.89,2.52,3.74,3.84,5.52.66.89,1.3,1.78,2,2.61s1.43,1.64,2.17,2.43a58.78,58.78,0,0,0,4.56,4.41c.79.68,1.58,1.33,2.41,1.94s1.71,1.15,2.59,1.66a34.26,34.26,0,0,0,5.47,2.62A25.46,25.46,0,0,0,47.56,268a33.59,33.59,0,0,0,13.54-1.2,75,75,0,0,0-5.85-6.12l-2.8-2.59q-1.37-1.23-2.74-2.3a51.6,51.6,0,0,0-5.42-3.71,39.87,39.87,0,0,0-5.21-2.79A52.35,52.35,0,0,0,18.56,245.37Z"/><path class="cls-1" d="M79,246.73l1.1,2.6q.58,1.26,1.13,2.56c.73,1.73,1.41,3.5,2,5.33.31.91.58,1.87.89,2.78s.59,1.84.85,2.79a58.9,58.9,0,0,1,1.33,6q.26,1.56.45,3.19c.15,1.06.28,2.13.38,3.24a68.2,68.2,0,0,1,.26,7c0,2.47-.2,5.11-.47,7.84s-.63,5.56-1.17,8.6q-1.4-1.85-2.62-3.65c-.77-1.26-1.48-2.51-2.14-3.74a65,65,0,0,1-3.31-7.18,47.62,47.62,0,0,1-1.93-26c.37-2,.83-3.86,1.36-5.72S78.37,248.55,79,246.73Z"/><path class="cls-1" d="M41.26,285.71c.74.83,1.46,1.66,2.22,2.44s1.56,1.53,2.36,2.27c1.58,1.47,3.19,2.87,4.84,4.17.83.64,1.64,1.28,2.51,1.84s1.75,1.08,2.65,1.58a39.41,39.41,0,0,0,5.46,2.52q1.39.51,2.82.9a29.39,29.39,0,0,0,15.47-.61,39.49,39.49,0,0,0,6.77-3q-1.74-1.31-3.43-2.43c-1.09-.8-2.16-1.56-3.22-2.26a51.85,51.85,0,0,0-6.22-3.51,40.4,40.4,0,0,0-11.41-4.13,40,40,0,0,0-10.59-1c-1.74.06-3.46.22-5.18.43S42.94,285.42,41.26,285.71Z"/><path class="cls-1" d="M101,274c2,2.9,3.83,6.11,5.66,9.21a76.34,76.34,0,0,1,4.71,10.51,58.13,58.13,0,0,1,1.8,6.09q.39,1.63.71,3.36c.22,1.15.44,2.28.63,3.48a96.49,96.49,0,0,1,1,16.53,71,71,0,0,1-5.84-6.1q-.64-.76-1.24-1.52c-.4-.51-.76-1.07-1.11-1.6q-1.07-1.61-2-3.2a50.37,50.37,0,0,1-3.05-6.28,48.34,48.34,0,0,1-1.83-6.38,49.1,49.1,0,0,1-.91-6.19c-.08-1-.14-2-.16-3s0-2.05.06-3.07A77.24,77.24,0,0,1,101,274Z"/><path class="cls-1" d="M69.63,320.94a58.09,58.09,0,0,0,10.7,6.63,33.79,33.79,0,0,0,11.41,3.37,30.79,30.79,0,0,0,5.92,0,28.72,28.72,0,0,0,3-.44,25.75,25.75,0,0,0,3-.89,37.42,37.42,0,0,0,12.21-7.38,60,60,0,0,0-7.26-3q-.87-.29-1.73-.54l-1.66-.56q-1.64-.53-3.22-.91a40.6,40.6,0,0,0-6.17-1,37.63,37.63,0,0,0-5.69-.32,39.1,39.1,0,0,0-5.45.5c-.89.14-1.78.32-2.64.51s-1.7.36-2.55.57A72.19,72.19,0,0,0,69.63,320.94Z"/><path class="cls-1" d="M126.38,295.2c1.15,1.29,2.38,2.39,3.55,3.64s2.32,2.54,3.42,3.93,2.23,2.73,3.28,4.24a49.19,49.19,0,0,1,3,4.82c.48.86.94,1.79,1.41,2.69s.93,1.81,1.37,2.78a62.47,62.47,0,0,1,2.46,6.32c.76,2.27,1.44,4.79,2.07,7.42s1.21,5.41,1.69,8.46q-1.88-1-3.58-2c-1.11-.77-2.16-1.58-3.16-2.39a50.6,50.6,0,0,1-5.32-5,43.12,43.12,0,0,1-6.86-11.15,48.18,48.18,0,0,1-3-11.85A68.68,68.68,0,0,1,126.38,295.2Z"/><path class="cls-1" d="M103.28,349a43.44,43.44,0,0,0,5.79,2.23c1.95.63,3.89,1.18,5.84,1.61a29,29,0,0,0,5.9.68,36,36,0,0,0,5.87-.29,24,24,0,0,0,2.9-.55q1.46-.41,2.91-1a32.49,32.49,0,0,0,5.68-2.88,34.47,34.47,0,0,0,5.47-4.3,50.3,50.3,0,0,0,5.25-6.09q-2-.33-3.93-.52c-1.26-.2-2.48-.37-3.67-.49a45.76,45.76,0,0,0-6.84-.17A40.33,40.33,0,0,0,122.61,339a46.83,46.83,0,0,0-10.14,4.13A102.78,102.78,0,0,0,103.28,349Z"/><path class="cls-1" d="M172.26,359.7c.5,0,21.52-11.37,33.49-12.57,3-.31,6.09-1.09,9.37-1.76,1.64-.37,3.32-.66,5-1.11l5.19-1.51c1.76-.54,3.57-1,5.38-1.62l5.5-2c3.76-1.26,7.5-3.08,11.37-4.82,1-.45,1.95-.85,2.91-1.35l2.89-1.55,5.87-3.16c1.94-1.15,3.87-2.41,5.84-3.62s4-2.42,5.87-3.86l5.84-4.19c1-.67,1.93-1.48,2.88-2.25l2.87-2.33c3.89-3,7.55-6.56,11.31-10,1-.83,1.82-1.8,2.74-2.71l2.71-2.77,2.72-2.78c.92-.91,1.75-1.95,2.63-2.92l5.21-5.92c1.69-2,3.32-4.15,5-6.22l2.48-3.12,2.36-3.26,4.69-6.51L328.8,259l2.19-3.36a28.91,28.91,0,0,0,2.06-3.46c33.33-79.65-5.8-139.35-5.8-139.35l-2.2-.47s36.86,66.86,5.58,137a31.75,31.75,0,0,1-2,3.38c-.69,1.12-1.44,2.19-2.16,3.29L322,262.62c-1.52,2.14-3.09,4.23-4.64,6.35l-2.33,3.18c-.8,1-1.63,2-2.45,3l-4.91,6.07L302.56,287c-.86,1-1.7,1.92-2.58,2.85l-2.68,2.69c-1.79,1.78-3.55,3.6-5.35,5.33l-5.52,5c-.92.81-1.81,1.68-2.76,2.43l-2.83,2.26c-1.89,1.49-3.74,3-5.63,4.45l-5.73,4c-1,.66-1.88,1.36-2.84,2l-2.9,1.77-5.71,3.5-5.74,3c-1.9,1-3.75,2-5.66,2.81l-5.6,2.47c-.93.38-1.82.86-2.76,1.16l-2.75,1-5.38,1.93c-.44.15-.88.33-1.32.46l-1.32.37-2.61.73-5.08,1.42a22.68,22.68,0,0,1-2.48.58l-2.43.49-4.7.95c-.76.14-1.51.33-2.26.43l-2.21.28c-2.91.37-5.7,1.71-8.26,2-2.55.13-30.65,13.95-31.22,13.94Z"/><path class="cls-1" d="M296.4,73.78a115.68,115.68,0,0,0,4.76,10.94,74,74,0,0,0,6.22,10.7c1.21,1.77,2.5,3.55,4,5.31s3.07,3.49,4.78,5.27,3.58,3.56,5.66,5.35c1,.9,2.14,1.78,3.26,2.7s2.27,1.84,3.49,2.77q-.45-2.12-1-4.14c-.37-1.34-.82-2.62-1.26-3.89a73.9,73.9,0,0,0-3-7.17,59.57,59.57,0,0,0-3.64-6.31,63,63,0,0,0-4.06-5.56,72.29,72.29,0,0,0-9.21-9A105.69,105.69,0,0,0,296.4,73.78Z"/><path class="cls-1" d="M307.41,120.4c.86,1.83,1.77,3.64,2.72,5.43s2,3.56,3,5.31a68.25,68.25,0,0,0,7.16,10.07,55.52,55.52,0,0,0,9.62,9A68.29,68.29,0,0,0,343,157.93a85.87,85.87,0,0,0-3.35-8.85,76.29,76.29,0,0,0-3.91-7.34A48.15,48.15,0,0,0,327,131a44.77,44.77,0,0,0-4.69-3.77,44.17,44.17,0,0,0-4.9-2.89A58.81,58.81,0,0,0,307.41,120.4Z"/><path class="cls-1" d="M352.17,103.84c.53,2.3,1,4.6,1.44,6.89a64.35,64.35,0,0,1,1,6.84,59.81,59.81,0,0,1-.15,13.35,41.08,41.08,0,0,1-3.87,12.47,37.89,37.89,0,0,1-8.71,11c-.48-3.25-.73-6.3-.93-9.15a72.85,72.85,0,0,1-.2-8,63.5,63.5,0,0,1,1.78-13.44,48.78,48.78,0,0,1,1.84-5.68,54.18,54.18,0,0,1,2.25-5.12A72,72,0,0,1,352.17,103.84Z"/><path class="cls-1" d="M322.17,154.36c.33,2,.71,4,1.13,6s.78,4,1.29,5.92,1.09,3.94,1.78,5.9,1.36,3.9,2.22,5.85a68.35,68.35,0,0,0,17.16,23.25q-.15-5-.71-9.4c-.19-1.46-.37-2.86-.67-4.22s-.6-2.67-.94-3.94a49.51,49.51,0,0,0-5.35-13,48,48,0,0,0-7.32-9.4A63.15,63.15,0,0,0,322.17,154.36Z"/><path class="cls-1" d="M360.76,149.81c.37,2.31.71,4.6,1,6.88s.32,4.56.36,6.81,0,4.45-.2,6.62a47.81,47.81,0,0,1-1.08,6.4,34.3,34.3,0,0,1-14.75,21.35,89.88,89.88,0,0,1-.21-9c0-1.4.14-2.76.2-4.06s.17-2.57.3-3.79a59.15,59.15,0,0,1,2.94-12.88,46,46,0,0,1,5.08-10.06A68.44,68.44,0,0,1,360.76,149.81Z"/><path class="cls-1" d="M326.91,195.9l-.29,1.47-.32,1.45q-.31,1.45-.59,2.92c-.37,2-.68,3.95-.91,6s-.47,4-.58,6.07a62.09,62.09,0,0,0-.05,6.29c0,1.07.13,2.17.22,3.25s.19,2.17.33,3.28a63.67,63.67,0,0,0,1.28,6.88c.57,2.36,1.31,4.82,2.18,7.33s1.87,5.08,3.08,7.77q.92-2.29,1.67-4.47c.46-1.49.87-2.94,1.23-4.36a74.23,74.23,0,0,0,1.6-8.09,55.57,55.57,0,0,0-.14-14.13,49.54,49.54,0,0,0-3.38-11.72A63,63,0,0,0,326.91,195.9Z"/><path class="cls-1" d="M368.9,211.55l-.44,1.67-.51,1.64q-.52,1.63-1.08,3.24c-.74,2.13-1.54,4.22-2.41,6.24a45.7,45.7,0,0,1-3,5.77,47.32,47.32,0,0,1-3.6,5.19c-.65.81-1.32,1.59-2,2.34s-1.5,1.44-2.3,2.11a32.63,32.63,0,0,1-5.15,3.56,30.56,30.56,0,0,1-6,2.55,37.46,37.46,0,0,1-7,1.33q.9-2.17,1.85-4.14c.58-1.34,1.17-2.62,1.77-3.84a63.08,63.08,0,0,1,3.79-6.65,47.71,47.71,0,0,1,8-10,44.42,44.42,0,0,1,8.75-6.6A73.16,73.16,0,0,1,368.9,211.55Z"/><path class="cls-1" d="M319.58,220.09c-.65,1.82-1.26,3.67-1.82,5.55l-.81,2.84q-.42,1.4-.8,2.82c-.5,1.91-.92,3.86-1.26,5.88-.17,1-.31,2-.45,3.07s-.28,2-.38,3.09a61.2,61.2,0,0,0-.27,6.55c0,2.26.2,4.67.42,7.07a87.61,87.61,0,0,0,3.2,16,89,89,0,0,0,4-8.16,38.17,38.17,0,0,0,1.44-3.93q.62-2,1.1-3.82a46.25,46.25,0,0,0,1.61-14C325.4,234.41,322.75,226.89,319.58,220.09Z"/><path class="cls-1" d="M360.38,253c-1.34,1.82-2.71,3.61-4.11,5.32-.71.85-1.39,1.71-2.15,2.5s-1.52,1.57-2.29,2.32a58.78,58.78,0,0,1-4.78,4.18c-.82.64-1.65,1.25-2.5,1.81s-1.77,1.06-2.67,1.53a34.26,34.26,0,0,1-5.6,2.34,25.46,25.46,0,0,1-6,1.18,33.59,33.59,0,0,1-13.47-1.89,75,75,0,0,1,6.15-5.81l2.93-2.45q1.43-1.16,2.85-2.16a51.6,51.6,0,0,1,5.6-3.43,39.87,39.87,0,0,1,5.35-2.52A52.35,52.35,0,0,1,360.38,253Z"/><path class="cls-1" d="M299.91,251.24l-1.23,2.54q-.64,1.23-1.26,2.5c-.82,1.69-1.58,3.42-2.29,5.22-.36.89-.68,1.84-1,2.73s-.68,1.81-1,2.74a58.9,58.9,0,0,0-1.63,5.88q-.34,1.54-.62,3.16c-.2,1.05-.39,2.12-.54,3.22a68.2,68.2,0,0,0-.62,7c-.1,2.46-.06,5.11.07,7.85s.35,5.59.73,8.65q1.49-1.77,2.8-3.51c.84-1.22,1.61-2.43,2.33-3.63a65,65,0,0,0,3.67-7,47.62,47.62,0,0,0,3.25-25.92c-.27-2-.63-3.9-1.07-5.79S300.49,253.09,299.91,251.24Z"/><path class="cls-1" d="M335.66,292.1c-.78.79-1.54,1.58-2.34,2.33s-1.64,1.45-2.47,2.14c-1.66,1.39-3.34,2.71-5,3.92-.86.6-1.7,1.2-2.6,1.71s-1.81,1-2.72,1.44a39.41,39.41,0,0,1-5.58,2.24q-1.42.44-2.86.75a29.39,29.39,0,0,1-15.42-1.4,39.49,39.49,0,0,1-6.61-3.32q1.81-1.22,3.55-2.25c1.13-.75,2.23-1.45,3.33-2.09a51.85,51.85,0,0,1,6.39-3.19,44.51,44.51,0,0,1,22.23-4c1.73.15,3.45.39,5.15.7S334,291.72,335.66,292.1Z"/><path class="cls-1" d="M276.62,277.34c-2.15,2.79-4.13,5.9-6.12,8.91a76.34,76.34,0,0,0-5.24,10.26,58.13,58.13,0,0,0-2.11,6q-.47,1.6-.88,3.32c-.28,1.14-.56,2.25-.81,3.44a96.49,96.49,0,0,0-1.86,16.46,71,71,0,0,0,6.14-5.79q.68-.72,1.32-1.45c.42-.49.81-1,1.19-1.54q1.15-1.55,2.14-3.09a50.37,50.37,0,0,0,3.37-6.12,48.34,48.34,0,0,0,2.15-6.28,49.1,49.1,0,0,0,1.23-6.13c.13-1,.24-2,.31-3s.09-2.05.1-3.07A77.24,77.24,0,0,0,276.62,277.34Z"/><path class="cls-1" d="M305.53,325.84a58.09,58.09,0,0,1-11,6.07,33.79,33.79,0,0,1-11.57,2.78,30.79,30.79,0,0,1-5.92-.29,28.72,28.72,0,0,1-3-.6,25.75,25.75,0,0,1-3-1,37.42,37.42,0,0,1-11.81-8,60,60,0,0,1,7.4-2.6q.89-.25,1.76-.45l1.68-.47q1.66-.45,3.27-.75a40.6,40.6,0,0,1,6.21-.69,37.63,37.63,0,0,1,5.7,0,39.1,39.1,0,0,1,5.41.78c.88.19,1.76.41,2.61.64s1.68.45,2.51.7A72.19,72.19,0,0,1,305.53,325.84Z"/><path class="cls-1" d="M250.17,297.23c-1.22,1.23-2.5,2.26-3.73,3.45s-2.44,2.42-3.62,3.75-2.36,2.61-3.49,4.06a49.19,49.19,0,0,0-3.28,4.66c-.53.83-1,1.74-1.54,2.62s-1,1.76-1.51,2.71a62.47,62.47,0,0,0-2.78,6.19c-.87,2.23-1.68,4.71-2.44,7.31s-1.48,5.34-2.12,8.36q1.93-.9,3.68-1.86c1.15-.71,2.24-1.47,3.28-2.22a50.6,50.6,0,0,0,5.57-4.69,43.12,43.12,0,0,0,7.42-10.79,48.18,48.18,0,0,0,3.55-11.69A68.68,68.68,0,0,0,250.17,297.23Z"/><path class="cls-1" d="M270.49,352.16a43.44,43.44,0,0,1-5.89,1.94c-2,.53-3.95,1-5.91,1.31a29,29,0,0,1-5.93.38,36,36,0,0,1-5.85-.59,24,24,0,0,1-2.87-.69q-1.44-.49-2.86-1.12a32.49,32.49,0,0,1-5.53-3.16,34.47,34.47,0,0,1-5.24-4.57,50.3,50.3,0,0,1-4.93-6.35q2-.23,4-.32c1.27-.13,2.49-.25,3.69-.3a45.76,45.76,0,0,1,6.84.17,40.33,40.33,0,0,1,11.73,2.32,46.83,46.83,0,0,1,9.91,4.65A102.78,102.78,0,0,1,270.49,352.16Z"/><path class="cls-2" d="M147.59,251.36l15.49-27.82s11.78-32.72,15.73-42.88a6.37,6.37,0,0,0-.49-5.6h0a4.39,4.39,0,0,0-2-1.77l-2.26-1a3.83,3.83,0,0,1-2.13-2.28l-.15-.44a3,3,0,0,0-3.9-1.86l-.61.22a.74.74,0,0,1-1-.7h0a2.71,2.71,0,0,0-2.71-2.71h-.7a2.16,2.16,0,0,1-1.94-1.21l-.23-.47a4.33,4.33,0,0,0-3.9-2.44h-.18a2,2,0,0,1-2-1.55l0-.13a2.52,2.52,0,0,0-3-1.89h-.06a1.66,1.66,0,0,1-2-1.59c0-.51,0-.9,0-.9A2.81,2.81,0,0,0,147,152.9h-1.28a1,1,0,0,1-1-1h0a6,6,0,0,0-2.44-4.84L98.36,114.62a.44.44,0,0,1,.39-.78l33.51,9.65a.94.94,0,0,0,1-1.53l-6.47-7.27a.19.19,0,0,1,.2-.31c6.1,2.09,52.87,18.24,68.13,26.18,2.13,1.11,7.95,5.35,7.95,5.35a5.9,5.9,0,0,0,9-3.51c1.29-5.33,3-11.69,4.14-14.09,4.45-9.11,12-13.91,21.87-11.64,3.11.71,14.62,2.27,14.62,2.27l33.95-6.58-32.93,9.3a7,7,0,0,0-4,2.87L234.4,145.87a25.8,25.8,0,0,0-4.27,12l-.82,9a39.87,39.87,0,0,1-15,26.56l-32.17,21.06a30.18,30.18,0,0,0-7.17,6.68l-23.61,32.15a.26.26,0,0,1-.43-.29l8.26-15.27a.17.17,0,0,0-.29-.19l-11,14A.18.18,0,0,1,147.59,251.36Z"/><circle class="cls-3" cx="236.44" cy="126.06" r="2.02"/><path class="cls-1" d="M104.61,214.88l2.65,6.33a13.8,13.8,0,0,1,.81,6.69q-.87,5.73-6.77,8.2-7.36,3.08-12.6-2.7A14.34,14.34,0,0,1,86.56,230L86,228.76l3.91-1.64.55,1.31a7.85,7.85,0,0,0,3.66,3.88,6.77,6.77,0,0,0,5.52-.12q5.06-2.12,4.17-7.72a7.11,7.11,0,0,0-.41-1.46l-1.09-2.59-14.25,6-.32-4.46Z"/><path class="cls-1" d="M117.92,241.52,126.6,253l-3.46,2.62-6.07-8L112.52,251l4.33,5.72-3.46,2.62-4.33-5.72-3.43,2.59,6.07,8-3.46,2.62-8.68-11.47Z"/><path class="cls-1" d="M140.56,269.79,130,285.42l6,4-1.22,4.45-10.82-7.28,13-19.27Zm-1.73,2.15-.09.13,0,0,.09-.13Z"/><path class="cls-1" d="M187.75,282.92l14.48-1.8.54,4.36-10.12,1.26.72,5.75,7.22-.9.54,4.36-7.22.9.54,4.32,10.12-1.26.54,4.36-14.48,1.8Z"/><path class="cls-1" d="M216.64,274.4l5.78-3.72a13.82,13.82,0,0,1,6.46-2q5.8-.14,9.26,5.25,4.32,6.72-.46,12.89a14.35,14.35,0,0,1-3,2.7l-1.17.75-2.29-3.57,1.2-.77a7.86,7.86,0,0,0,3.19-4.28,6.78,6.78,0,0,0-1.08-5.42q-3-4.62-8.34-2.76a7.11,7.11,0,0,0-1.36.65l-2.37,1.52,8.36,13-4.34,1.09Zm2.16-1.08,0,0,.06,0,0,0Zm14.69,16.53.06.09,0,0-.06-.09Zm2.64-1.79,0,.06.06,0,0-.06Zm.1-.2,0,.06,0,0,0-.06Zm.09-.14,0,.06,0,0,0-.06Z"/><path class="cls-1" d="M242.69,255.78l10.08-9.45,2.85,3-7,6.6,3.75,4,5-4.71,2.85,3-5,4.71,2.82,3,7-6.6,2.85,3L257.8,271.9Zm10.81,5.87.08.08,0,0-.08-.08Zm.8-1.51.05.05,0,0-.05-.05Z"/><path class="cls-1" d="M265.37,231.26l15.64.1-12-6.63,2.16-3.92,26,14.28-22.49,1.19,11.62,6.38-2.16,3.92-20.82-11.44Zm20,12.42,0,0,0-.07,0,0Zm.23-1,0,0,0-.07,0,0Z"/><path class="cls-1" d="M98.06,40.35l16.15,27.36a13.42,13.42,0,0,1,1.67,10.47,11.48,11.48,0,0,1-5.37,6.49l-.6.36q-6.84,4-13.19-.92a15.08,15.08,0,0,1-3.12-3.48l.07-.1,5.06-3q4.49,4.36,8.27,2.13l.23-.14q3.88-2.29,2.59-6.85a7.89,7.89,0,0,0-.77-1.73L92.82,43.45ZM72.49,41.8v.25q0,.17.17.17a.65.65,0,0,1,.08-.25Zm2.78,5.64.08.17a.15.15,0,0,1-.17.17l-.08-.17Q75.12,47.44,75.27,47.44ZM100.1,19.33v.08h.17v-.08Zm6.65-27v.08H107v-.08Zm.17-.5v.08h.17v-.08Zm1.18-5.13.08.17a.67.67,0,0,1,.34-.08v-.08ZM108.34,24v.42h.08l.08-.42Z"/><path class="cls-1" d="M120.17,29a.1.1,0,0,1,.14,0L132,50.35a14.94,14.94,0,0,1-2.3,2.58A24.77,24.77,0,0,1,128,54.77l-.09-.06-7.09-12.92,0,0q2.49,19.85,2.4,19.89l-4.83,2.65h-.11q-4.52-31.25-4.56-31.74Zm-1,34.31,0,.09.09,0A.09.09,0,0,0,119.22,63.36Zm.35-.3,0,.09a.1.1,0,0,0,.14,0l0-.09A.09.09,0,0,0,119.57,63.05Zm-2-5.6,0,0,.09,0-.07-.13A.1.1,0,0,0,117.58,57.45Zm.1-.23.09,0,0-.09A.1.1,0,0,0,117.68,57.22Zm5,3.2,0,.09a.09.09,0,0,0,0-.14Zm-.18-17.11q0,.09-.13.18l0,.09,0,0a.46.46,0,0,1,.15-.25l0,0Zm1.85-5.59,0,0,.09,0,0,0Zm7,12.27,0,0,.16.2,0,0-.14-.26Z"/><path class="cls-1" d="M132.17,24.65,142.39,21a6.45,6.45,0,0,1,5.61.76,9.42,9.42,0,0,1,4.13,5.2l.14.41q2,5.8-1.8,9.46l8.37,9.19-5.17,1.82-8-8.76-2.42.85,3.63,10.31-5.16,1.82-9.62-27.34A.09.09,0,0,1,132.17,24.65Zm1.92,5,0,0,.09,0,0,0Zm7.73,22,0,.14.14,0S141.92,51.64,141.81,51.63Zm-.37-2.23,0,.09,0,0,0-.09Zm3-4.51,0,.09,0,0,0-.09Zm-5.32-15.27,0,0,.09,0,0,0Zm3.39,9.63,0,.09a.09.09,0,0,0,.06-.12Zm2.52,7.17,0,0a.09.09,0,0,0,.06-.12l0,0A.09.09,0,0,0,145.06,46.43Zm.18.5,0,.09.14,0,0-.09Zm-.17-.76,0,.09a.09.09,0,0,0,.06-.12Zm1.38,3.77a.38.38,0,0,1,0,.2l.09,0-.06-.18Zm-7.69-22.59,0,.09.09,0,0-.09Zm.32.76,2.36,6.71,3.38-1.19a3.51,3.51,0,0,0,2.5-3.24,4.37,4.37,0,0,0-.22-1.21l-.11-.32a3.13,3.13,0,0,0-3.14-2.23A5.22,5.22,0,0,0,142,27l-2.83,1A.09.09,0,0,0,139.08,28.12Zm.06-5.67,0,0,.09,0,0,0Zm2.19,1.69,0,.09.09,0a.44.44,0,0,1,.06-.28l0,0Q141.42,24.11,141.33,24.14Zm13.19,22.91,0,.09,0,0,0-.09Zm-.28-4.88,0,.09,0,0,0-.09ZM148.4,24l0,0,.09,0,0,0Zm7.38,20.24,0,.09a.09.09,0,0,0,.06-.12Zm-.28-1.39a1.48,1.48,0,0,1,0,.2l.09,0-.06-.18Z"/><path class="cls-1" d="M161.19,17.07l8.75-1.83a18,18,0,0,1,8.76.61q7.12,2.53,8.82,10.68Q189.65,36.7,181,42a18.67,18.67,0,0,1-4.84,1.91l-1.77.37-1.13-5.4,1.82-.38a10.23,10.23,0,0,0,5.86-3.72,8.82,8.82,0,0,0,1.21-7.09q-1.46-7-8.85-7.23a9.25,9.25,0,0,0-2,.16l-3.59.75L171.85,41l-5.78-.69Zm6.86,23,.11,0,0-.14C168.07,40,168,40,168.06,40.08Zm1.91.05q0,.09.12.08l0-.11Zm.85-1.92,0,.19.1,0a.09.09,0,0,0,.08-.12v0A.39.39,0,0,1,170.81,38.21Zm3.29,2.85-.1.22v0q.2-.14.2-.24Zm.4,2.61,0,.14h0l0-.14Zm7.41-9.43v0l.1,0v0Zm.07-.61q0,.09.12.08l0-.1Zm.09-.27,0,.1h0l0-.1Zm0-.26,0,.1h0l0-.1Zm1.9,0,0,.1.1,0,0-.1Zm0-.26v0a.38.38,0,0,1,.15,0h0v0a.37.37,0,0,1-.15,0Zm.09-.27c0,.06.06.09.12.08l0-.1Z"/><path class="cls-1" d="M202.73,14.23V39.59l-5.46-1.75V14.23Zm-5.12.47v0h.1v0Zm4.3,7.63v0s.1,0,.14-.14h0Q201.91,22.25,201.91,22.33Zm.39-.1v0h.19v0Z"/><path class="cls-1" d="M220,15.17l6.46,19.62,3.22-17.87,5.82,1-6.94,38.51-11-27.64-3.09,17.23-5.82-1,5.55-30.89Zm-7.92,12.67,0,.1h.05l0-.1Zm13.86,21.31,0,.1H226l0-.1Z"/><path class="cls-1" d="M252.28,22.73,269.89,30l-2.18,5.31L255.4,30.21l-2.88,7,8.78,3.61-2.18,5.31-8.78-3.61-2.16,5.26,12.31,5.06-2.18,5.31L240.7,50.91Z"/><path class="cls-1" d="M296.25,50l3.17,2.54L295.87,57,293,54.67a10.4,10.4,0,0,0-7.34-2.23A9.1,9.1,0,0,0,279.85,56l-.09.12L290,64.31l-.19.23a15,15,0,0,1-20.73,2.28l-3.18-2.55,3.55-4.42,2.9,2.33a10.63,10.63,0,0,0,6.92,2.27,6.26,6.26,0,0,0,1.47-.3l-4.3-3.45q-3.28-2.63-2.23-6a7.7,7.7,0,0,1,1.09-2.08l.22-.27A15,15,0,0,1,296.25,50ZM272.62,67.15l-.06.08,0,0,.06-.08Zm20.19-18.84-.06.08,0,0,.06-.08Z"/><polygon class="cls-1" points="241.05 239.51 243.82 236.04 244.43 241.84 243.04 242.61 241.05 239.51"/></g></svg>