<svg xmlns="http://www.w3.org/2000/svg" viewBox="0 0 1990.08 321.15"><defs><style>.cls-1{fill:#fff;}</style></defs><title>LOGO_JARDINES</title><g id="Capa_2" data-name="Capa 2"><path class="cls-1" d="M166,42.86v175q0,32.81-21.38,54.33Q127,287.88,101,287.88H97.16q-43.72,0-60-41.27-5-15.14-5-25.24l.59-.3H65.1q9.06,33.25,33.25,33.25h1.48q24.79,0,31.47-25.24a43.44,43.44,0,0,0,1.19-10.39V42.86Zm-129.45,196v.89q.07.59.59.59a2.29,2.29,0,0,1,.3-.89Zm9.8,19.89.3.59a.52.52,0,0,1-.59.59l-.3-.59Q45.87,258.78,46.39,258.78ZM134,159.62v.3h.59v-.3Zm23.46-95.31v.3h.89v-.3Zm.59-1.78v.3h.59v-.3Zm4.16-18.11.3.59a2.36,2.36,0,0,1,1.19-.3v-.3Zm.89,131.83v1.49h.3l.3-1.49Z"/><path class="cls-1" d="M280.13,42.86q.59.07.59.59v143.7q0,1-19.3,6.83,0,.3-14,4.75l-.3-.59V110.85h-.3Q203.23,221,202.64,221H170l-.59-.3Q235,45.53,236.19,42.86ZM177.4,218.33v.59H178A.52.52,0,0,0,177.4,218.33Zm2.67-.59v.59q.07.59.59.59v-.59A.52.52,0,0,0,180.07,217.74ZM185.71,183v.3h.59v-.89Q185.71,182.48,185.71,183Zm1.19-.89h.59v-.59C187.1,181.56,186.9,181.76,186.9,182.11ZM203.82,213v.59a.53.53,0,0,0,.59-.59Zm47.8-89.37q0,.59-1.19.59v.59h.3a2.71,2.71,0,0,1,1.48-.89v-.3Zm25.53-23.75v.3h.59v-.3Zm1.48,83.73v.3l.3,1.48h.3v-1.78Z"/><path class="cls-1" d="M295,42.71h66.51q17.59,0,30.92,15.81T405.72,97v2.67q0,37.71-29.69,51.07L405.72,221H372.1l-28.43-67H327.93v67H294.38V43.3Q294.45,42.71,295,42.71Zm.89,33V76h.59v-.3Zm0,142.81v.89h.89Q296.76,218.92,295.87,218.48Zm2.38-13.66v.59h.3v-.59ZM325,184.93v.59h.3v-.59Zm.3-99.17v.3h.59v-.3Zm0,62.65V149a.52.52,0,0,0,.59-.59Zm0,46.61v.3a.53.53,0,0,0,.59-.59v-.3Q325.26,194.5,325.26,195Zm0,3.27v.59h.89v-.59Zm.59-4.75v.59a.53.53,0,0,0,.59-.59Zm.3,24.64a2.36,2.36,0,0,1-.3,1.19h.59v-1.19Zm1.48-146.37v.59h.59v-.59Zm.3,5V120.5h22q14.84,0,21.08-13.66a26.82,26.82,0,0,0,1.19-7.42V97.34q0-14.1-13.66-19.3a32,32,0,0,0-11.58-1.78H328.53Q327.93,76.34,327.93,76.85ZM339.81,44.2v.3h.59v-.3ZM349,58.45V59h.59a2.71,2.71,0,0,1,.89-1.48v-.3Q349.6,58.45,349,58.45ZM378.7,217.88v.59h.3v-.59Zm8.31-28.8v.59h.3v-.59Zm3.27-117.28v.3h.59v-.3Zm1.48,132.12v.59a.53.53,0,0,0,.59-.59Zm1.19-8.61a9.09,9.09,0,0,1-.3,1.19h.59v-1.19Z"/><path class="cls-1" d="M413.14,42.86h54.33q24.2,0,51.36,14.55Q558,81.31,558,131.93q0,63.17-58.19,83.73Q481.65,221,468.66,221h-11V187.45H469q20.93,0,39.49-14.85,16-15.29,16-40.68,0-43.42-43.64-54A56.24,56.24,0,0,0,469,76.41H446.69V198.73l-33.55-11.28Zm12.17,145.48.59.3v-.89C425.51,187.8,425.32,188,425.32,188.34ZM436.6,191q.07.59.59.59l.3-.59ZM444,180.62v1.19h.59a.53.53,0,0,0,.59-.59v-.3A2.35,2.35,0,0,1,444,180.62Zm16,21.08-.89,1.19v.3q1.34-.59,1.48-1.19Zm-.89,16v.89h.3v-.89ZM515,170.83v.3h.59v-.3Zm1.19-3.56q.07.59.59.59v-.59Zm.89-1.49v.59h.3v-.59Zm.59-1.48v.59h.3v-.59Zm11.28,2.38v.59h.59v-.59Zm.59-1.48v.3a2.3,2.3,0,0,1,.89.3h.3v-.3a2.26,2.26,0,0,1-.89-.3Zm.89-1.48q.07.59.59.59v-.59Z"/><path class="cls-1" d="M597.89,42.79V198.73L564.34,188V42.79Zm-31.47,2.89V46H567v-.3Zm26.42,46.91v.3q.45,0,.89-.89h-.3Q592.84,92.07,592.84,92.59Zm2.38-.59v.3h1.19V92Z"/><path class="cls-1" d="M645.4,42.86,701.21,146V42.86h33.55V265L645.69,121.61l.07,99.39H612.22l-.07-178.14Zm-31.47,78.75v.59h.3v-.59Zm98.87,105.1v.59h.3v-.59Z"/><path class="cls-1" d="M750.43,42.86H861.77V76.41H784v44.24H839.5V154.2H784v33.25h77.79V221H750.43Z"/><path class="cls-1" d="M952.84,42.86h24V76.41h-22q-23.31,0-42.16,16.92-13.66,15-13.66,37.71v.89h77.79v1.78q0,32.88-24.94,60.27-27.83,27-62.35,27H865.48V187.45h22q21.67,0,40.38-15.14,5-5.27,5.64-6.83H900.88q-24.87,0-32.66-19.6a45.59,45.59,0,0,1-2.67-13.66v-2.08q0-33,24.94-60.27Q918.33,42.86,952.84,42.86ZM907.12,209.42V210h.3v-.59ZM930.57,47.61v.59h.3v-.59Z"/><path class="cls-1" d="M1021.95,42.86h54.33q24.2,0,51.36,14.55,39.19,23.9,39.19,74.52,0,63.17-58.19,83.73-18.19,5.34-31.17,5.34h-11V187.45h11.28q20.93,0,39.49-14.85,16-15.29,16-40.68,0-43.42-43.64-54a56.25,56.25,0,0,0-11.88-1.48H1055.5V198.73l-33.55-11.28Z"/><path class="cls-1" d="M1173.15,42.86h111.34V76.41H1206.7v44.24h55.52V154.2H1206.7v33.25h77.79V221H1173.15Z"/><path class="cls-1" d="M1325.46,42.86V187.45h55.22L1392,221l-100.06.07V42.86Zm-1.78,21.08v1.19h.3V63.94Z"/><path class="cls-1" d="M1434.57,42.86h111.34V76.41h-77.79v44.24h55.52V154.2h-55.52v33.25h77.79V221H1434.57Z"/><path class="cls-1" d="M1553.33,42.86h54.33q24.2,0,51.36,14.55,39.19,23.9,39.19,74.52,0,63.17-58.19,83.73-18.19,5.34-31.17,5.34h-11V187.45h11.28q20.93,0,39.49-14.85,16-15.29,16-40.68,0-43.42-43.64-54a56.25,56.25,0,0,0-11.88-1.48h-22.27V198.73l-33.55-11.28Zm19,2.08v.3h.59v-.3Zm27,172.8v.89h.3v-.89Zm25.24-.59v.59h.59v-.59Zm1.48-.89v.59h.3v-.59Zm1.19-.59v.59h.3v-.59Z"/><path class="cls-1" d="M1704.53,42.86h111.34V76.41h-77.79v44.24h55.52V154.2h-55.52v33.25h77.79V221H1704.53ZM1735.7,137v.89h.3V137Zm13.06-4.45v.59h.3v-.59Z"/><path class="cls-1" d="M1856.54,42.86,1912.36,146V42.86h33.55V265l-89.07-143.41.07,99.39h-33.55l-.07-178.14Zm-9.2,176.44v.3h.59v-.3Zm7.42-2.08v.3h.59v-.3Z"/></g></svg>