<svg id="Capa_1" enable-background="new 0 0 512 512" height="512" viewBox="0 0 512 512" width="512" xmlns="http://www.w3.org/2000/svg"><g><path d="m438.992 255.407c0-54.819-20.708-88.288-38.081-106.713-4.411-4.678-8.815-8.639-13.009-11.984 8.091-8.141 13.101-19.348 13.101-31.706 0-22.652-16.827-41.44-38.636-44.542-6.789-34.419-37.191-60.462-73.573-60.462h-65.589c-36.381 0-66.784 26.043-73.573 60.463-21.809 3.102-38.636 21.889-38.636 44.542 0 12.357 5.009 23.565 13.101 31.706-4.194 3.346-8.598 7.307-13.009 11.984-17.372 18.424-38.081 51.894-38.081 106.713 0 75.374 60.71 164.969 75.199 185.277v26.315c0 24.813 20.187 45 45 45h125.586c24.813 0 45-20.187 45-45v-26.315c14.49-20.309 75.2-109.904 75.2-185.278zm-268.06 165.407c-6.507-9.348-19.464-28.788-32.334-52.86h234.803c-12.871 24.075-25.829 43.516-32.334 52.86zm52.273-390.814h65.589c19.556 0 36.228 12.544 42.418 30.004h-150.425c6.19-17.46 22.862-30.004 42.418-30.004zm-67.209 60.004h7.172c.007 0 .015.001.022.001.006 0 .012-.001.018-.001h192.794c8.271 0 15 6.729 15 15s-6.729 15-15 15h-200.006c-8.271 0-15-6.729-15-15s6.729-15 15-15zm2.949 60h194.109c7.603 3.418 33.174 17.21 46.957 52.86h-288.023c13.783-35.65 39.355-49.442 46.957-52.86zm-54.483 82.86h303.076c.934 6.961 1.454 14.459 1.454 22.543 0 26.391-9.155 55.717-20.943 82.546h-264.098c-11.789-26.83-20.944-56.155-20.944-82.546.001-8.083.521-15.581 1.455-22.543zm214.331 249.136h-125.586c-8.271 0-15-6.729-15-15v-16.186h155.586v16.186c0 8.271-6.729 15-15 15z"/><circle cx="256" cy="285.407" r="15"/><circle cx="196" cy="285.407" r="15"/><circle cx="316" cy="285.407" r="15"/></g></svg>